<?xml version="1.0" standalone="no"?>
<svg version="1.0" xmlns="http://www.w3.org/2000/svg"
 width="200" height="80" viewBox="0 0 443.000000 125.000000"
 preserveAspectRatio="xMidYMid meet">

<g transform="translate(0.000000,125.000000) scale(0.100000,-0.100000)"
fill="white" stroke="none">
<path d="M760 1204 c-86 -18 -212 -82 -277 -139 -29 -26 -75 -80 -102 -122
-44 -67 -64 -119 -181 -475 -73 -221 -134 -407 -137 -414 -4 -12 26 -14 163
-14 l169 0 124 368 c68 202 134 388 147 413 27 55 90 114 153 143 43 20 66 21
370 26 l325 5 33 110 c18 61 33 111 33 113 0 1 -170 2 -377 1 -283 0 -394 -4
-443 -15z"/>
<path d="M1668 1204 c-32 -17 -49 -47 -72 -126 -9 -32 -19 -64 -22 -73 -5 -13
13 -15 145 -15 206 0 207 1 255 153 l24 77 -152 0 c-114 -1 -158 -4 -178 -16z"/>
<path d="M2290 1045 l0 -175 35 0 34 0 3 73 3 72 78 3 77 3 0 29 0 30 -81 0
-80 0 3 38 3 37 88 3 87 3 0 29 0 30 -125 0 -125 0 0 -175z"/>
<path d="M2623 1124 c-45 -22 -66 -73 -61 -142 4 -46 10 -60 36 -83 90 -81
222 -21 222 101 0 109 -100 172 -197 124z m107 -64 c43 -43 15 -140 -40 -140
-33 0 -60 35 -60 78 0 73 55 107 100 62z"/>
<path d="M3163 1125 c-17 -7 -38 -24 -46 -37 -36 -57 -28 -155 15 -195 52 -48
151 -34 182 26 23 43 20 51 -19 51 -23 0 -35 -5 -35 -14 0 -22 -28 -39 -54
-32 -28 7 -49 56 -40 95 14 57 62 80 86 41 14 -21 78 -29 78 -10 0 32 -33 70
-68 79 -47 14 -60 13 -99 -4z"/>
<path d="M3430 1128 c-102 -54 -90 -220 18 -258 37 -13 47 -13 84 0 63 22 91
69 86 143 -6 78 -43 118 -115 124 -28 2 -58 -2 -73 -9z m104 -70 c23 -32 20
-94 -4 -118 -42 -42 -100 -9 -100 58 0 50 23 82 60 82 18 0 34 -8 44 -22z"/>
<path d="M3780 1133 c-8 -3 -23 -12 -32 -21 -16 -14 -18 -13 -18 1 0 12 -9 17
-30 17 l-30 0 0 -130 0 -130 30 0 30 0 0 78 c0 87 15 125 48 130 43 6 52 -13
52 -114 l0 -94 35 0 35 0 0 100 c0 54 -5 110 -11 124 -16 34 -70 53 -109 39z"/>
<path d="M4070 1133 c-8 -3 -23 -12 -32 -21 -16 -14 -18 -13 -18 1 0 12 -9 17
-30 17 l-30 0 0 -130 0 -130 30 0 30 0 0 78 c0 87 15 125 48 130 43 6 52 -13
52 -114 l0 -94 35 0 35 0 0 100 c0 54 -5 110 -11 124 -16 34 -70 53 -109 39z"/>
<path d="M2870 1071 c22 -33 40 -64 40 -68 0 -4 -18 -35 -40 -68 l-40 -60 37
-3 c38 -3 41 -1 77 52 12 18 14 17 35 -17 20 -32 27 -37 62 -37 21 0 39 2 39
6 0 3 -18 32 -40 64 -22 32 -40 62 -40 65 0 3 18 33 40 66 l41 59 -40 0 c-34
0 -42 -4 -62 -36 l-22 -36 -20 36 c-19 33 -25 36 -64 36 l-44 0 41 -59z"/>
<path d="M1147 906 c-16 -15 -34 -51 -47 -96 -12 -40 -24 -79 -27 -86 -4 -12
23 -14 155 -14 197 0 200 1 237 124 14 45 25 85 25 89 0 4 -71 7 -159 7 -153
0 -159 -1 -184 -24z"/>
<path d="M1546 913 c-74 -245 -256 -862 -256 -867 0 -3 78 -6 173 -6 l172 0
128 438 c70 240 127 440 127 445 0 4 -76 7 -169 7 -153 0 -170 -2 -175 -17z"/>
<path d="M3910 775 c0 -32 2 -35 30 -35 28 0 30 3 30 35 0 32 -2 35 -30 35
-28 0 -30 -3 -30 -35z"/>
<path d="M2290 630 l0 -170 40 0 40 0 0 170 0 170 -40 0 -40 0 0 -170z"/>
<path d="M2880 749 c0 -45 -2 -50 -17 -44 -56 24 -110 12 -138 -31 -38 -59
-27 -165 22 -204 31 -24 90 -26 121 -4 12 8 22 10 22 5 0 -6 14 -11 30 -11
l30 0 0 170 0 170 -35 0 -35 0 0 -51z m-17 -107 c38 -42 26 -116 -21 -133 -18
-7 -29 -3 -49 17 -22 22 -25 32 -20 67 8 62 55 87 90 49z"/>
<path d="M4300 630 l0 -170 35 0 35 0 0 170 0 170 -35 0 -35 0 0 -170z"/>
<path d="M3570 745 c0 -24 -5 -35 -15 -35 -9 0 -15 -9 -15 -25 0 -16 6 -25 15
-25 12 0 15 -16 15 -85 0 -99 15 -125 75 -125 30 0 35 3 35 24 0 15 -7 26 -20
29 -18 5 -20 14 -20 81 0 69 2 76 20 76 15 0 20 7 20 25 0 18 -5 25 -20 25
-16 0 -20 7 -20 35 0 33 -2 35 -35 35 -33 0 -35 -2 -35 -35z"/>
<path d="M2518 705 c-16 -9 -28 -11 -28 -5 0 5 -13 10 -30 10 l-30 0 0 -125 0
-125 30 0 30 0 0 73 c0 82 15 121 48 125 43 6 52 -13 52 -109 l0 -89 35 0 35
0 0 104 c0 84 -3 108 -18 126 -23 28 -87 36 -124 15z"/>
<path d="M3319 691 c-53 -54 -30 -110 53 -131 55 -13 73 -24 73 -41 0 -9 -14
-15 -37 -17 -29 -2 -39 1 -48 17 -8 15 -21 21 -46 21 -32 0 -35 -2 -29 -22 13
-45 51 -68 111 -68 82 0 123 28 124 83 0 15 -9 36 -19 46 -18 18 -78 41 -107
41 -6 0 -17 7 -25 16 -10 13 -10 17 2 25 23 14 48 10 66 -11 20 -23 73 -27 73
-6 0 47 -44 76 -115 76 -38 0 -52 -5 -76 -29z"/>
<path d="M3810 700 c-16 -16 -20 -17 -20 -5 0 10 -11 15 -35 15 l-35 0 0 -125
0 -125 35 0 35 0 0 73 c0 82 16 117 56 117 21 0 24 5 24 35 0 28 -4 35 -20 35
-11 0 -29 -9 -40 -20z"/>
<path d="M4075 708 c-27 -14 -45 -38 -45 -60 0 -25 44 -24 77 1 17 14 31 18
46 12 49 -18 24 -43 -56 -56 -21 -3 -47 -15 -58 -26 -26 -26 -25 -83 1 -109
24 -24 86 -27 118 -4 12 8 22 10 22 5 0 -6 17 -11 38 -11 l37 0 -6 102 c-3 57
-9 111 -13 120 -15 33 -118 50 -161 26z m89 -189 c-26 -29 -69 -22 -69 11 0
20 7 26 40 36 36 10 40 9 43 -8 2 -11 -4 -28 -14 -39z"/>
<path d="M3010 605 c0 -99 2 -107 25 -130 28 -29 79 -33 113 -9 12 8 22 10 22
5 0 -6 16 -11 35 -11 l35 0 0 125 0 125 -35 0 -35 0 0 -83 c0 -97 -11 -120
-55 -115 l-30 3 -3 98 -3 97 -34 0 -35 0 0 -105z"/>
<path d="M3910 585 l0 -125 30 0 30 0 0 125 0 125 -30 0 -30 0 0 -125z"/>
<path d="M688 644 c-32 -17 -49 -47 -72 -126 -9 -32 -19 -64 -22 -73 -5 -13
13 -15 145 -15 164 0 196 8 219 52 14 27 52 147 52 166 0 19 -286 16 -322 -4z"/>
<path d="M1036 578 c-96 -319 -156 -522 -156 -530 0 -5 77 -7 171 -6 l171 3
89 300 c49 165 89 303 89 308 0 4 -76 7 -169 7 l-170 0 -25 -82z"/>
<path d="M2297 384 c-4 -4 -7 -83 -7 -176 l0 -168 40 0 40 0 -2 173 -3 172
-30 3 c-17 2 -34 0 -38 -4z"/>
<path d="M2727 363 c-4 -3 -7 -21 -7 -40 0 -23 -5 -33 -15 -33 -8 0 -15 -9
-15 -20 0 -11 7 -20 15 -20 12 0 15 -15 15 -79 0 -44 4 -91 10 -105 8 -23 15
-26 55 -26 41 0 45 2 45 25 0 18 -5 25 -20 25 -18 0 -20 7 -20 76 0 67 2 76
20 81 11 3 20 13 20 23 0 10 -9 20 -20 23 -15 4 -20 14 -20 41 0 33 -2 36 -28
36 -16 0 -32 -3 -35 -7z"/>
<path d="M3900 335 c0 -28 -5 -38 -20 -42 -11 -3 -20 -13 -20 -23 0 -10 9 -20
20 -23 18 -5 20 -14 20 -94 0 -56 4 -93 12 -101 7 -7 31 -12 55 -12 39 0 43 2
43 25 0 18 -5 25 -20 25 -18 0 -20 7 -20 80 0 73 2 80 20 80 13 0 20 7 20 20
0 13 -7 20 -19 20 -16 0 -20 8 -23 38 -3 34 -6 37 -35 40 -32 3 -33 2 -33 -33z"/>
<path d="M2430 170 l0 -130 30 0 30 0 0 76 c0 90 18 133 57 134 32 0 43 -31
43 -121 l0 -89 35 0 35 0 0 105 c0 99 -2 107 -25 130 -29 29 -88 34 -123 9
-20 -14 -22 -14 -22 0 0 11 -10 16 -30 16 l-30 0 0 -130z"/>
<path d="M2904 281 c-34 -21 -54 -64 -54 -118 0 -103 95 -161 195 -119 29 12
55 41 55 60 0 10 -69 6 -75 -4 -10 -17 -71 -11 -88 8 -33 36 -22 42 79 42 l97
0 -7 41 c-8 50 -28 82 -62 97 -38 18 -105 14 -140 -7z m107 -41 c10 -6 19 -20
19 -30 0 -17 -7 -20 -49 -20 -58 0 -70 11 -41 40 22 22 42 25 71 10z"/>
<path d="M3147 293 c-4 -3 -7 -62 -7 -130 l0 -123 35 0 35 0 0 79 c0 87 12
111 56 111 21 0 24 5 24 35 0 30 -3 35 -24 35 -13 0 -29 -7 -37 -16 -11 -14
-13 -14 -21 0 -9 16 -49 22 -61 9z"/>
<path d="M3330 170 l0 -130 29 0 29 0 4 91 c2 76 6 93 22 105 25 18 41 18 60
-2 12 -12 16 -37 16 -105 l0 -89 35 0 35 0 0 105 c0 99 -2 107 -25 130 -29 29
-88 34 -123 9 -20 -14 -22 -14 -22 0 0 11 -10 16 -30 16 l-30 0 0 -130z"/>
<path d="M3652 284 c-49 -34 -69 -133 -37 -193 34 -66 149 -80 206 -25 16 15
29 31 29 36 0 12 -78 10 -85 -2 -11 -18 -73 -12 -85 9 -20 37 -13 41 80 41
l90 0 0 41 c0 33 -6 47 -34 75 -30 30 -40 34 -88 34 -32 0 -62 -6 -76 -16z
m106 -50 c40 -28 28 -44 -33 -44 -41 0 -55 4 -55 14 0 16 37 46 55 46 6 0 21
-7 33 -16z"/>
</g>
</svg>
